# xmcd
#
# Track frame offsets: 
#        150
#        42387
#        95827
#        119730
#        135117
#        174735
#        241282
#        287202
#        311217
#
# Disc length: 4649 seconds
#
# Revision: 0
# Processed by: cddbd v1.5.2PL0 Copyright (c) Steve Scherf et al.
# Submitted via: ExactAudioCopy v1.0b1
#
DISCID=87122709
DTITLE=Bruno Walter - Great Conductors of the 20th Century vol. 15 [CD
DTITLE=1 of 2)
DYEAR=1936
DGENRE=Classical
TTITLE0=Symphony, no. 06, F Major   Erwachen heiterer Empfindungen bei
TTITLE0=der Ankunft auf dem Lande (Allegro ma non troppo)  Op. 68   [
TTITLE0=Lud
TTITLE1=Symphony, no. 06, F Major   Szene am Bach (Andante molto mosso
TTITLE1=)  Op. 68   [Ludwig van Beethoven]  
TTITLE2=Symphony, no. 06, F Major   Lustiges Zusammensein der Landleut
TTITLE2=e (Allegro)  Op. 68   [Ludwig van Beethoven] 
TTITLE3=Symphony, no. 06, F Major   Gewitter - Sturm: Allegro  Op. 68 
TTITLE3=[Ludwig van Beethoven] 
TTITLE4=Symphony, no. 06, F Major   Hirtengesang.  Frohe und dankbare 
TTITLE4=Gefühle nach dem Sturm (Allegretto)  Op. 68   [Ludwig van Beet
TTITLE4=hov
TTITLE5=Symphony, no. 02, D Major   Allegro non troppo  Op. 73   [Joha
TTITLE5=nnes Brahms]  
TTITLE6=Symphony, no. 02, D Major   Adagio non troppo  Op. 73   [Johan
TTITLE6=nes Brahms] 
TTITLE7=Symphony, no. 02, D Major   Allegro grazioso (Quasi andantino)
TTITLE7= Presto ma non assai  Op. 73   [Johannes Brahms]  
TTITLE8=Symphony, no. 02, D Major   Allegro con spirito  Op. 73   [Joh
TTITLE8=annes Brahms] 
EXTD=
EXTT0=
EXTT1=
EXTT2=
EXTT3=
EXTT4=
EXTT5=
EXTT6=
EXTT7=
EXTT8=
PLAYORDER=
